<?xml version="1.0" encoding="utf-8"?>
<!-- Generator: Adobe Illustrator 23.0.3, SVG Export Plug-In . SVG Version: 6.00 Build 0)  -->
<svg version="1.1" id="Calque_1" xmlns="http://www.w3.org/2000/svg" xmlns:xlink="http://www.w3.org/1999/xlink" x="0px" y="0px"
	 viewBox="0 0 128 128" style="enable-background:new 0 0 128 128;" xml:space="preserve">
<style type="text/css">
	.st0{fill:#389394;}
</style>
<path class="st0" d="M120.3,47.1c-0.3-0.2-0.7-0.4-1.1-0.5c-1-0.3-1.2-1-1-1.9c0.1-0.5,0.1-1,0.2-1.5c0.5-1.7,0.3-3.4,0.3-5.2
	c0-0.9-0.3-1.5-0.9-2.1c-1.2-1.2-2.6-1.9-4.2-2.3c-3.9-0.9-7.8-1.3-11.7-1.7c-5.1-0.5-10.2-0.1-15.2,0.6c-5.1,0.7-10.1,2.3-14.7,4.7
	c-0.6,0.3-1.3,0.6-1.9,0.9c-0.8,0.4-1.6,0.3-2.3-0.2c-0.4-0.3-0.8-0.6-1.2-1c-2-2.2-4.4-3.9-6.8-5.6c-3.3-2.2-6.7-4.3-10.6-5.2
	c-1.1-0.3-2.1-0.7-3.2-1.1c-2.7-1.1-5.5-1.5-8.4-1.3c-0.7,0-1.4,0.1-2.1,0.1c-0.9,0-1.8,0-2.7,0c-2.4-0.1-4.7,0.2-7,0.6
	c-1.2,0.2-1.8,0.9-2,2c-0.1,0.5-0.1,1-0.2,1.5c0,0.5,0,1,0,1.5c-0.1,1.1-0.4,1.5-1.5,1.4c-1.6-0.1-2.1,0.8-2.4,2.1
	c-0.7,3-1.5,5.9-2,8.9c-0.7,3.4-1.2,6.8-1.7,10.2c-1,7-2.7,13.9-4.1,20.9c-0.8,4.2-1.7,8.3-2.6,12.5c-0.3,1.2,0,2.3,1,2.9
	c0.5,0.3,1.1,0.5,1.7,0.5c2.6,0.2,5.3,0.5,7.9,0.5c3.9,0,7.7,0.6,11.5,1c4.8,0.6,9.7,1.2,14.6,1.2c0.8,0,1.6,0,2.4,0.1
	c3.3,0.6,3.1,0.6,3.8,3.5c0,0.1,0,0.2,0.1,0.3c0.1,1.1,0.7,1.9,1.6,2.5c1.2,0.8,2.4,1.5,3.7,2.1c1.9,0.8,3.8,1.4,5.9,0.7
	c0.6-0.2,1.2-0.1,1.8-0.2c1.9-0.4,3.8-0.8,5.2-2.3c0.6-0.7,1.4-0.7,2.3-0.6c0.4,0.1,0.8,0.2,1.2,0.3c4.7,1.3,9.5,1.9,14.3,2.7
	c2.8,0.4,5.7,0.6,8.3,1.6c0.3,0.1,0.6,0.1,0.9,0.2c2.4,0.1,4.8,0.6,7.2,1.1c3.3,0.7,3.9,0.3,4.8-2.8c0.1-0.3,0.1-0.6,0.2-0.9
	c1-4.1,2.1-8.3,3.1-12.4c0.3-1.1,0.4-2.2,0.6-3.3c0.5-2.4,0.8-4.8,1.4-7.2c2.3-9.1,4.1-18.2,6.1-27.3c0.1-0.4,0.2-0.8,0.2-1.2
	C121.1,48,120.8,47.4,120.3,47.1L120.3,47.1z M17.9,76.2c0.3-0.3,0.9-0.6,1.3-0.6c0.9-0.1,1.8,0,2.5,0c3.5,0,6.6,0.8,9.8,1.5
	c0.1,0,0.2,0.1,0.2,0.2c-0.1,0.1-0.3,0.3-0.4,0.3c-1.6,0-3.2,0-4.8-0.2c-1-0.1-2-0.1-3,0c-1.7,0.2-3.4,0.3-5.1,0.3
	c-0.3,0-0.7-0.2-0.7-0.4C17.6,76.9,17.7,76.4,17.9,76.2L17.9,76.2z M45.9,85.9c-3.1-0.7-6.2-1.3-9.2-2.1c-3.8-1.1-7.7-1.9-11.6-2
	c-1.2,0-2.4-0.2-3.6-0.4c-0.6-0.1-1.2-0.1-1.8,0.2c-0.5,0.2-0.9,0.4-1,1c-0.1,0.5,0.5,0.9,1.3,1c3.5,0.4,7,0.8,10.6,1.3
	c0.6,0.1,1.2,0.2,1.8,0.4c2.8,0.7,5.5,1.4,8.2,2.1c0.4,0.1,0.8,0.3,1.1,0.5c0.2,0.1,0.3,0.3,0.4,0.4c-0.2,0.1-0.4,0.1-0.6,0.1
	c-0.1,0-0.2,0-0.6,0c-1.5-0.2-3.3-0.6-5.1-0.8c-2.5-0.4-5-0.6-7.5-1c-2.3-0.3-4.6-0.6-6.9-1c-1-0.2-1.9-0.6-2.9-0.9
	c-0.7-0.2-1.4-0.3-2-0.5c-0.3-0.1-0.6-0.2-0.4-0.6c0.3-1-0.1-1.8-0.5-2.6c-0.2-0.4-0.4-0.9-0.6-1.4c0-0.1,0.1-0.4,0.3-0.5
	c0.1-0.1,0.4-0.2,0.5-0.1c0.2,0.1,0.3,0.3,0.4,0.4c0.4,0.8,1.2,1.1,2,1.1c1.6,0.1,3.3,0.2,4.9,0.1c3.4-0.1,6.7,0.4,10,0.9
	c2.4,0.4,4.8,0.7,7.1,1.5c2,0.7,4,1.5,6,2.3c0.2,0.1,0.2,0.3,0.4,0.4C46.3,85.8,46.1,86,45.9,85.9L45.9,85.9z M49.6,80.7
	c-6-3.4-12.5-5.3-19.1-6.8c-3.3-0.8-6.6-1.3-9.9-1.3c-0.9,0-1.3-0.5-1.1-1.4c0.6-2.9,1.2-5.8,1.9-8.6c1.5-6.1,2.7-12.3,3.5-18.5
	c0.2-1.1,0.4-2.2,0.8-3.2c0.8-1.7,1-3.5,1.1-5.3c0-2.3,0-4.7,0-7c0-0.8,0.4-1.2,1.1-1c3.2,0.6,6.4,0.5,9.7,0.2
	c1.7-0.2,3.4,0.2,5.1,0.7c2.6,0.9,5.2,1.7,7.7,2.7c2.9,1.2,5.7,2.7,7.9,5c1.3,1.4,2.9,2.5,4.4,3.8c0.4,0.3,0.8,0.6,1.2,0.9
	c1.7,1.4,3,3.1,2.6,5.5c-0.3,2-0.6,4-0.9,6c-0.3,2.1-0.7,4.2-1,6.3c-0.2,1.4-0.4,2.8-0.7,4.2c-1.4,5.9-2.8,11.8-4.3,17.7
	c-0.1,0.3-0.1,0.6-0.2,0.9c-0.4,1.2-0.8,2.5-1.2,3.7c-1.6-0.1-2.8-1.1-4.1-1.8C52.5,82.6,51.1,81.6,49.6,80.7L49.6,80.7z M60,88.1
	v0.2c-0.1,0-0.2-0.1-0.4-0.1c0.1-0.1,0.1-0.1,0.2-0.2C59.9,88,60,88.1,60,88.1L60,88.1z M67,95.9c-1.7,1.3-3.8,1.9-6.1,1.9
	c-1.3,0.2-2.6-0.3-3.7-1.4c-0.6-0.6-1.2-1.1-1.7-1.7c-0.7-0.7-0.9-1.6-0.8-2.5c0-0.2,0.2-0.5,0.3-0.5c0.3,0,0.7,0.2,0.8,0.3
	c0.7,2.7,2.8,3.8,5.3,4.3c1.6,0.3,3.2,0.4,4.4-1.1c0.2-0.2,0.5-0.4,0.8-0.4c0.3,0,0.6,0.1,0.8,0.3C67.2,95.3,67.1,95.8,67,95.9
	L67,95.9z M68,92.6c-0.3,0.1-0.7,0.1-1,0.1c0,0,0,0.1,0,0.1c-0.1,0-0.2,0-0.2,0c-1.2,0.6-2.9,1.1-3.7,1c-0.1,0-0.2-0.1-0.2-0.1
	c0-0.1,0.1-0.2,0.2-0.3c0.4-0.2,0.8-0.6,1.3-0.6c0.8-0.1,1.6,0,2.4,0c0.1,0,0.1-0.1,0.2-0.1l0.1,0c0.1-0.4,0.4-0.5,0.8-0.5
	c0.2,0,0.3,0.1,0.5,0.1C68.2,92.5,68.1,92.6,68,92.6L68,92.6z M70.1,91.9c-0.1,0-0.2,0-0.3,0c-0.1,0-0.1-0.1-0.2-0.1h0.5
	C70.1,91.8,70.1,91.9,70.1,91.9L70.1,91.9z M72.2,91.4c-0.1,0-0.2-0.1-0.2-0.1c0.2,0,0.3-0.1,0.5-0.1c0.1,0,0.2,0.1,0.2,0.1
	C72.6,91.3,72.4,91.3,72.2,91.4L72.2,91.4z M74.2,90.9c-0.1,0-0.2-0.1-0.3-0.2c0,0,0-0.2,0.1-0.2c0.2-0.1,0.4-0.2,0.6-0.2
	c3.1-0.9,6.3-1.4,9.6-1.5c1.5,0.1,3,0.2,4.5,0.3c0.2,0,0.4,0.2,0.5,0.2c-0.2,0.1-0.4,0.2-0.5,0.2c-0.4,0.1-0.8,0.1-1.2,0.1
	c-3.1,0.2-6.2,0.4-9.4,0.7C76.8,90.5,75.5,90.7,74.2,90.9L74.2,90.9z M106.5,95.1c-0.4,1.1-0.9,2.2-1.3,3.4
	c-1.2,0.3-2.4-0.1-3.5-0.2c-2.1-0.3-4.2-0.7-6.2-1.1c-0.2,0-0.4,0-0.6-0.1c-1.3-0.3-2.4-1.3-4-1.2c-1.3,0.1-2.6-0.3-3.9-0.7
	c-1.4-0.3-2.7-0.8-4-1.2c-0.2-0.1-0.3-0.2-0.4-0.3c0.2,0,0.4-0.1,0.6-0.1c1.8-0.1,3.6-0.2,5-0.2c4.6,0.1,8.7,0.3,12.8,1.2
	c1.2,0.3,2.4,0.2,3.6-0.1c0.5-0.1,1-0.2,1.5-0.2c0.2,0,0.4,0.4,0.5,0.6C106.5,94.8,106.5,95,106.5,95.1L106.5,95.1z M109,84.1l0,0.1
	c0,0-0.1,0.1-0.1,0.1c0,0.7,0,1.5-0.1,2.2c0,0.1-0.2,0.3-0.2,0.4c-0.1-0.1-0.2-0.2-0.2-0.3c0-0.8-0.3-1.7,0.4-2.4
	C108.9,84.3,108.9,84.2,109,84.1C109,84.1,109,84.1,109,84.1c0-0.8,0.1-1.5,0.1-2.3c0-0.1,0.1-0.2,0.1-0.3c0.1,0.1,0.1,0.1,0.1,0.2
	C109.4,82.5,109.9,83.5,109,84.1L109,84.1z M107.4,72c-1,4.3-1.7,8.8-2.5,13.1c-0.2,0.8-0.1,1.6-0.2,2.4c-0.1,0.7-0.6,1.1-1.2,0.9
	c-0.1,0-0.2,0-0.3-0.1c-4-1.8-8.3-2.6-12.5-3.8c-1.3-0.4-2.6-0.6-3.9-0.7c-4.7-0.3-9.3,0.2-13.8,1.7c-2.8,1-5.6,1.9-8.4,2.8
	c-0.4,0.1-0.8-0.2-0.8-0.6c0-0.4,0-0.8,0.1-1.2c0.5-3.3,1.2-6.6,1.6-9.9c0.6-4.2,1.5-8.4,2.5-12.5c0.5-2,0.8-4,1.2-6
	c0.4-2.4,0.8-4.8,1.1-7.2c0.2-2.2,0.3-4.5,0.4-6.7c0.1-3.8-0.6-3.3,3.5-4.9c3.6-1.4,7.3-2.5,11.1-3.2c3.6-0.6,7.2-0.9,10.9-0.7
	c5.1-0.3,10.1,0.6,15.2,1.3c1,0.1,1.9,0.6,2.9,0.9c0.7,0.3,0.9,0.7,0.8,1.4c-0.4,2-0.9,4-1.3,5.9C111.6,54,109.4,63,107.4,72
	L107.4,72z M114.3,60.4c-0.1-0.1-0.4-0.2-0.4-0.4c-0.1-0.7,0.3-1.2,1-1.3c0.2,0,0.6,0.3,0.6,0.5C115.5,59.8,114.9,60.3,114.3,60.4
	L114.3,60.4z M103.3,57c-0.6-0.3-1.3-0.7-2-0.8c-4.1-0.7-8.2-1.3-12.3-1.8c-0.6-0.1-1.2-0.1-1.8,0c-3,0.4-6,0.8-9,1.3
	c-1.9,0.3-3.7,1-5.4,2c-0.3,0.2-0.7,0.5-0.8,0.8c-0.1,0.3,0,0.8,0.1,1.1c0.1,0.2,0.5,0.4,0.8,0.4c0.7-0.2,1.4-0.4,2-0.6
	c0.9-0.3,1.7-0.7,2.6-0.9c3-0.8,6.2-1.3,9.7-1.2c2.4-0.3,5,0.5,7.7,0.9c2.1,0.4,4.2,0.7,6.3,1c0.6,0.1,1.2,0,1.8-0.1
	c0.4-0.1,1-0.7,0.9-1.1C103.8,57.7,103.6,57.2,103.3,57L103.3,57z M99.5,70.3c-0.5-0.2-1-0.3-1.5-0.4c-3.3-0.5-6.6-1-9.9-1.5
	c-1-0.1-2-0.1-3,0c-3.5,0.3-7,0.7-10.6,1.2c-1.4,0.2-2.8,0.5-4,1.3c-0.4,0.3-0.6,0.9-0.5,1.3c0.2,0.4,0.7,0.8,1.2,0.7
	c1.6-0.2,3.2-0.6,4.8-0.8c3.2-0.4,6.4-0.7,9.7-1.1c1.9,0.2,3.8,0.2,5.8,0.6c2.2,0.5,4.4,0.8,6.6,1.1c0.3,0,0.6,0.1,0.9,0.1
	c0.7,0,1.4-0.6,1.4-1.3C100.5,71.1,100.1,70.5,99.5,70.3L99.5,70.3z M106.1,43c-0.7-0.4-1.5-0.7-2.3-0.8c-4.7-0.6-9.4-1.3-14.2-1.4
	c-2.7,0.2-5.4,0.4-8.2,0.7c-2,0.3-3.9,1.1-5.7,2c-0.1,0-0.2,0.1-0.2,0.2c-0.5,0.4-0.8,1.2-0.5,1.6c0.3,0.5,0.8,0.6,1.4,0.4
	c0.7-0.2,1.3-0.5,2-0.8c1.6-0.7,3.3-1.1,5-1.1c7.1,0,14.2-0.5,21.2,1.2c0.4,0.1,0.8,0,1.2,0c0.4,0,0.9-0.5,0.8-1.1
	C106.6,43.6,106.4,43.1,106.1,43L106.1,43z M102,64.4c-0.4-0.1-0.8-0.2-1.2-0.3c-1.5-0.3-3-0.7-4.4-1c-3.1-0.6-6.2-1.1-9-1
	c-5.1-0.1-9.7,1-14.3,2.2c-0.6,0.2-1.1,0.5-1.6,0.9c-0.1,0.1-0.2,0.4-0.2,0.5c0.1,0.3,0.3,0.6,0.5,0.6c0.8,0.3,1.6,0,2.4-0.2
	c3.7-1,7.5-1.6,11.4-1.6c1.8,0,3.6,0.1,5.4,0.5c2.6,0.7,5.3,1.3,8,1.8c0.9,0.2,1.8,0.2,2.7,0.2c0.6,0,1.1-0.6,1.1-1.2
	S102.6,64.6,102,64.4L102,64.4z M103.7,49.5c-0.9-0.2-1.8-0.4-2.7-0.6c-1-0.2-2-0.4-3-0.5c-2.6-0.2-5.2-0.5-7.9-0.6
	c-2.2,0-4.4,0.2-6.7,0.3c-2.6,0.1-5,0.8-7.4,1.4c-0.9,0.2-1.6,0.8-2.4,1.3c-0.3,0.2-0.5,0.6-0.7,1c-0.1,0.2,0,0.6,0.2,0.8
	c0.2,0.2,0.5,0.3,0.8,0.3c0.2,0,0.4,0,0.6-0.1c2.1-1.1,4.3-1.7,6.7-2c2.8-0.4,5.6-1,8.5-0.7c3.9,0.4,7.9,0.6,11.7,1.5
	c0.6,0.1,1.2,0.2,1.5,0.2c1,0,1.6-0.4,1.7-1C104.7,50.4,104.3,49.7,103.7,49.5L103.7,49.5z M96.4,76.3c-4.4-1-9-1.2-13.5-1.7
	c-0.5-0.1-1,0-1.5,0.1c-3.3,0.6-6.6,1.2-9.8,1.8c-0.6,0.1-1.1,0.4-1.7,0.6c-0.3,0.1-0.4,0.8-0.1,1.1c0.3,0.2,0.7,0.5,1,0.5
	c0.5,0.1,1,0,1.5-0.1c2.4-0.5,4.8-1,7.1-1.4c2.6-0.5,5.2-0.5,7.8,0.1c3.2,0.7,6.3,1.3,9.7,2c0,0,0.2,0,0.4,0c0.5-0.1,1-0.4,1-1
	c0-0.3-0.2-0.8-0.4-1C97.5,76.8,96.9,76.5,96.4,76.3L96.4,76.3z M55.4,70.6c-0.5-0.5-1-1-1.6-1.4c-3-2.1-6.2-3.8-9.5-5.3
	c-1.6-0.7-3.2-1.1-4.9-0.9c-3.3,0.2-6.4,0.4-9.5,0.6c-0.1,0-0.2,0-0.3,0c-0.6,0.1-1,0.8-0.8,1.4c0.3,1,0.9,1.6,2,1.6
	c1.7,0,3.4,0,5.2,0.1c1.2,0,2.4,0.1,3.6,0.3c2.5,0.4,4.9,1.2,7.1,2.6c1.9,1.2,3.7,2.4,5.6,3.6c0.5,0.3,1,0.7,1.6,0.9
	c1.3,0.4,2.5-0.7,2.2-2C55.9,71.4,55.7,70.9,55.4,70.6L55.4,70.6z M30.3,42.3c0.4,0.2,0.9,0.3,1.4,0.4c3.1,0.5,6.2,1.1,9.2,1.9
	c5.5,1.3,10.6,3.5,15.2,6.6c0.8,0.6,1.7,1.1,2.6,1.6c0.3,0.2,0.8,0.4,1.1,0.4c0.4,0,0.8-0.2,1.1-0.4c0.3-0.3,0.2-0.8-0.1-1.1
	c-0.5-0.5-1-1-1.6-1.4c-5.4-4-11.3-6.7-17.9-8.1c-2.8-0.6-5.5-1.4-8.9-1.3c-0.4,0-1.3,0-2.2,0.2c-0.2,0-0.5,0.4-0.5,0.6
	C29.9,41.9,30.1,42.2,30.3,42.3L30.3,42.3z M57,63.1c-1.2-0.9-2.5-1.8-3.8-2.6c-2.6-1.6-5.3-3-8.4-3.3c-1.3-0.1-2.6-0.5-3.9-0.7
	c-3.1-0.4-6.2-0.8-8.7-1.1c-1.5,0.1-2.4,0.1-3.3,0.2c-0.1,0-0.3,0.2-0.4,0.4c0,0.2,0,0.4,0.1,0.5c0.8,0.9,1.9,1.1,3,1.3
	c3.2,0.5,6.4,0.9,9.6,1.3c4,0.5,7.7,1.5,11,3.9c0.7,0.5,1.3,0.9,2,1.3c0.4,0.3,0.9,0.5,1.3,0.7c0.7,0.3,1.6,0.1,1.9-0.5
	C57.8,64.2,57.6,63.5,57,63.1L57,63.1z M33.2,34.7c0.8,0.2,1.6,0.5,2.4,0.6c4.4,0.9,8.6,2.3,12.6,4.4c3.3,1.8,6.7,3.3,9.7,5.7
	c0.5,0.4,1,0.6,1.6,0.9c0.5,0.2,1.2-0.1,1.5-0.6c0.3-0.5,0.2-1-0.2-1.4c-0.6-0.5-1.3-1-1.9-1.5c-4.2-2.8-8.8-5-13.4-7.1
	c-3.4-1.6-7.1-2.4-10.9-2.9c-0.2,0-0.5,0-0.8,0c-0.5,0-1,0.2-1.2,0.7C32.3,34,32.7,34.6,33.2,34.7L33.2,34.7z M30,49.8
	c1.2,0.3,2.4,0.6,3.6,0.8c5.5,0.7,10.6,2.4,15.5,4.9c1.9,1,3.8,2,5.6,3c0.7,0.4,1.4,0.8,2.1,1.2c0.5,0.2,1,0.4,1.4,0.4
	c0.3,0,0.7-0.2,1-0.5c0.3-0.3,0.2-0.8-0.1-1.1c-0.5-0.5-1.1-0.9-1.7-1.2c-2.8-1.5-5.7-3.1-8.6-4.6c-2.4-1.3-5-2.2-7.6-2.9
	c-2.9-0.8-5.8-1.6-8.9-1.7c-0.7,0-1.4,0-2.1,0.2c-0.3,0.1-0.7,0.4-0.9,0.7C29.2,49.4,29.7,49.7,30,49.8L30,49.8z"/>
</svg>
