<?xml version="1.0" encoding="utf-8"?>
<!-- Generator: Adobe Illustrator 23.0.3, SVG Export Plug-In . SVG Version: 6.00 Build 0)  -->
<svg version="1.1" id="Calque_1" xmlns="http://www.w3.org/2000/svg" xmlns:xlink="http://www.w3.org/1999/xlink" x="0px" y="0px"
	 viewBox="0 0 128 128" style="enable-background:new 0 0 128 128;" xml:space="preserve">
<style type="text/css">
	.st0{fill:#FFFFFF;}
</style>
<path class="st0" d="M37.7,34.4L37.7,34.4c2.7-3.7,4.1-7.7,3.4-12.4c-0.2-1-0.5-2.1-1-3c-0.7-1.3-1.6-2.6-2.4-3.8
	c-0.6-0.8-1.4-1.3-2.3-1.6c-2.6-0.8-4.9-0.1-6.8,1.7c-0.9,0.8-1.4,1.9-1.5,3.1c0,1,0,1.9,0,2.9l0,0V22c0,4.3,1.2,8.2,3.2,11.9
	C32.1,37.1,36,36.8,37.7,34.4z"/>
<path class="st0" d="M85.6,22.8L85.6,22.8c0.1,2.7,1,5.2,2.5,7.5c0.9,1.4,2.1,2.4,3.8,2.7c1.8,0.3,3.2-0.2,4.1-1.8
	c1.9-3.4,3-7.1,3-11c0-1.7-0.1-3.4-0.3-5.1c-0.3-2.6-1.9-4-4.2-4.7c-2.9-1-5.5,0.1-7.1,2.7c-1.5,2.4-1.9,5-1.7,7.7
	C85.6,21.5,85.6,22.1,85.6,22.8z"/>
<path class="st0" d="M113.7,56.4L113.7,56.4c-0.7-2.8-1.6-5.6-3.1-8.1c-1-1.7-1.9-3.6-2.9-5.4c-1.2-2.2-2.4-4.3-3.5-6.5
	c-0.9-1.8-2.4-2.6-4.2-3.2c-1.1-0.3-6.5,2.2-11.5,0.9c-0.3,0.3-0.7,0.6-0.9,0.9c-0.9,1.7-1.8,3.4-2.7,5.1C83,43.6,81,47,78.8,50.3
	c-1.1,1.6-2.5,2.9-4.3,3.7c-1.6,0.8-3.2,1.7-4.6,2.9c-1.4,1.1-3,2-4.5,3c-0.5,0.3-1,0.3-1.5,0c-2.5-1.4-4.9-3.1-7.6-4.3
	c-2.8-1.3-5-3.2-6.7-5.8c-2-3-4.3-5.9-6-9.2c-0.6-1.2-1.4-2.4-2.2-3.6c-0.3-0.5-0.7-1.2-1.4-1.1c-1,0.3-8.4,2.1-9,0.9
	c-0.5-0.9-1.2-1.2-2.1-1c-0.3,0.1-0.6,0.1-0.9,0.3c-1.5,0.9-2.8,1.8-3.5,3.6c-1.6,3.9-3.3,7.7-5.1,11.4c-1.3,2.7-2.2,5.5-2.8,8.5
	c-0.4,1.9-0.4,3.8-0.2,5.8c0.1,1.5,0.3,3,0.5,4.5c0.2,1.7,0.3,3.4,0.7,5.1c0.3,1.8,2.5,2.9,4,1.9s2.6-2.3,2.5-4.2
	c-0.1-3.4-0.1-6.9-0.5-10.3c-0.4-4,0.4-7.4,2.9-10.5c0.1-0.1,0.3-0.1,0.5-0.2c0,0,0.1,0.2,0.1,0.3c0.1,1.2,0.2,2.4,0.3,3.5
	c0.6,4.6,1.1,9.1,1,13.8c-0.1,2.5-0.2,4.9,0,7.4c0.3,3.9-0.5,7.7-0.9,11.5c-0.4,3.6-1.1,7.2-1.1,10.9c0,0.5-0.1,1.1-0.1,1.6
	c-0.6,3.6-1.1,7.2-1.1,10.9c0,1.5-0.2,3-0.3,4.5c0,0.4,0,0.9,0.1,1.3c0.4,1.4,2.1,2.5,3.5,2.2c1.3-0.3,2.4-0.8,3.4-1.7
	c0.5-0.4,0.8-0.9,0.8-1.7c0.1-3.1,0.2-6.2,0.9-9.2c0.5-2.2,0.9-4.4,1.3-6.6c0.5-2.4,0.8-4.9,1.5-7.2c0.3-1.1,0.1-2.4,1.1-3.3
	c0.9,0.9,0.4,2.1,0.7,3.1c0.1,0.4,0.2,0.8,0.2,1.3c0.5,4,1,8.1,1.5,12.1c0.3,2.4,0.5,4.9,0.8,7.3c0.2,1.4,0.7,2.7,1.1,4
	c0.5,1.4,1.5,2,2.9,2.1c1.5,0.1,2.4-0.8,2.9-2.1c0.3-0.7,0.5-1.4,0.6-2.1c0.3-2.7,0.5-5.3,0.5-8c-0.1-6.2,0.1-12.4-0.5-18.7
	c-0.3-3-0.4-6-0.8-9c-0.4-2.6-0.5-5.1-0.5-7.7c0-3.2,0-6.4,0-9.7c0-1.3-0.3-2.5-0.4-3.8c-0.1-0.7-0.1-1.5-0.1-2.2
	c0-0.1,0.1-0.2,0.2-0.3c0.1,0,0.2,0,0.3,0.1c0.6,0.6,1.2,1.2,1.8,1.8c0.8,0.8,1.6,1.8,2.5,2.5c3.7,2.9,8,4.5,12.4,6
	c1.1,0.4,2.3,0.2,3.4-0.4c2.3-1.2,4.5-2.4,6.9-3.5c3.4-1.6,6.1-4,8.3-7c0.4-0.5,0.8-0.9,1.3-1.4c0.7,0.6,0.3,1.4,0.3,2
	c-0.2,2-0.2,4,0,6.1c0.3,3.1,0.4,6.2,0.6,9.3c0,1-0.1,1.9-0.1,2.9c0,1.2-0.2,2.4,0,3.5c0.3,1.5,0.2,3,0.1,4.5c0,1.9-0.2,3.9-0.3,5.8
	c0,3.3,0,6.7,0,10H84c0,4.3,0,8.6,0,12.9c0,2,0.4,3.8,1.1,5.6c0.5,1.4,2.3,2.1,3.8,1.6c0.9-0.3,1.5-1,1.7-1.8c0.4-1.8,0.8-3.6,1-5.4
	c0.3-1.8,0.4-3.6,0.5-5.4c0.2-4.3,1.1-8.5,1-12.8c0-1.4,0.2-2.8,0.4-4.2c0-0.3,0.3-0.6,0.6-0.7c1.3-0.5,2.5,0.1,2.7,1.3
	c0.5,3.1,1.1,6.1,1.3,9.2c0.1,0.6,0.1,1.3,0.3,1.9c1.3,5.4,2.2,10.9,2.4,16.5c0,0.2,0,0.4,0,0.6c0.2,0.9,1.1,1.7,2,1.8
	c1.5,0.2,2.5-0.6,3.1-1.8c1-1.8,1.7-3.7,1.8-5.8c0.1-2.8,0.2-5.6-0.4-8.3c-0.4-2-0.7-4-0.8-6c-0.2-4.7-0.9-9.4-1.7-14
	c-0.1-0.4-0.2-0.8-0.2-1.3c-0.5-4.1-0.9-8.3-1.5-12.4c-0.4-2.3-0.5-4.7-0.5-7c0-4.5,0.1-9,0.1-13.5c0-0.2,0.1-0.4,0.1-0.6
	c0-0.1,0.1-0.2,0.2-0.2s0.2,0,0.3,0.1c0.5,0.6,0.9,1.2,1.4,1.8c1.2,1.3,1.8,2.9,2.1,4.6c0.2,1.4,0.4,2.8,0.6,4.1
	c0.4,2.9,0.8,5.7,1.2,8.6c0.1,0.5,0,1.1,0.2,1.6c0.4,1.6,1,3.1,2.5,3.9c0.7,0.4,1.9,0.1,2.2-0.6c0.3-0.8,0.6-1.6,0.6-2.5
	c0.1-3.9,0.2-7.7,0.2-11.6C114,57.9,113.8,57.1,113.7,56.4z"/>
</svg>
